<?xml version="1.0" encoding="utf-8"?>
<!-- Generator: Adobe Illustrator 18.1.1, SVG Export Plug-In . SVG Version: 6.00 Build 0)  -->
<svg version="1.1" id="Layer_1" xmlns="http://www.w3.org/2000/svg" xmlns:xlink="http://www.w3.org/1999/xlink" x="0px" y="0px"
	 viewBox="327.1 100.6 204.8 137.7" enable-background="new 327.1 100.6 204.8 137.7" xml:space="preserve">
<g transform="matrix(4.16667,0,0,4.16667,-0,-0)">
	<g id="Berg" transform="matrix(1.43405,0,0,1.43405,-378.765,-307.092)">
		<g transform="matrix(0.167358,-0,-0,0.167358,264.122,214.143)">
			<g>
				
					<image overflow="visible" enable-background="new    " width="2492" height="1665" id="_Image1" xlink:href="BACAC320.png"  transform="matrix(7.836732e-002 0 0 7.836732e-002 336.6562 100.6105)">
				</image>
			</g>
		</g>
	</g>
	<g id="SneeuwVoor">
		<g transform="matrix(1.54772,0,0,1.54772,675.474,665.641)">
			<g transform="matrix(0.155066,-0,-0,0.155066,-436.431,-430.078)">
				<g>
					
						<image overflow="visible" enable-background="new    " width="221" height="215" id="_Image2" xlink:href="BACAC321.png"  transform="matrix(7.836699e-002 0 0 7.836699e-002 433.0851 216.5378)">
					</image>
				</g>
			</g>
		</g>
		<g transform="matrix(0.780059,0,0,0.780059,757.047,668.576)">
			<g transform="matrix(0.307669,-0,-0,0.307669,-970.499,-857.083)">
				<g>
					
						<image overflow="visible" enable-background="new    " width="148" height="144" id="_Image3" xlink:href="BACAC327.png"  transform="matrix(7.836699e-002 0 0 7.836699e-002 409.5889 216.4931)">
					</image>
				</g>
			</g>
		</g>
		<g transform="matrix(0.780059,0,0,0.780059,710.031,680.533)">
			<g transform="matrix(0.307669,-0,-0,0.307669,-910.227,-872.412)">
				<g>
					
						<image overflow="visible" enable-background="new    " width="148" height="144" id="_Image4" xlink:href="BACAC322.png"  transform="matrix(7.836699e-002 0 0 7.836699e-002 394.2378 220.3999)">
					</image>
				</g>
			</g>
		</g>
		<g transform="matrix(1.03617,0,0,1.03617,675.933,671.089)">
			<g transform="matrix(0.231621,-0,-0,0.231621,-652.336,-647.661)">
				<g>
					
						<image overflow="visible" enable-background="new    " width="172" height="168" id="_Image5" xlink:href="BACAC323.png"  transform="matrix(7.836699e-002 0 0 7.836699e-002 399.8239 217.6428)">
					</image>
				</g>
			</g>
		</g>
		<g transform="matrix(1.4617,0,0,1.4617,562.991,676.104)">
			<g transform="matrix(0.164193,-0,-0,0.164193,-385.163,-462.548)">
				<g>
					
						<image overflow="visible" enable-background="new    " width="213" height="207" id="_Image6" xlink:href="BACAC32E.png"  transform="matrix(7.836699e-002 0 0 7.836699e-002 390.7473 219.8536)">
					</image>
				</g>
			</g>
		</g>
		<g transform="matrix(1.4617,0,0,1.4617,622.698,669.496)">
			<g transform="matrix(0.164193,-0,-0,0.164193,-426.011,-458.027)">
				<g>
					
						<image overflow="visible" enable-background="new    " width="213" height="207" id="_Image7" xlink:href="BACAC32F.png"  transform="matrix(7.836699e-002 0 0 7.836699e-002 410.2455 217.6949)">
					</image>
				</g>
			</g>
		</g>
		<g transform="matrix(1.4617,0,0,1.4617,639.508,683.011)">
			<g transform="matrix(0.164193,-0,-0,0.164193,-437.511,-467.273)">
				<g>
					
						<image overflow="visible" enable-background="new    " width="213" height="207" id="_Image8" xlink:href="BACAC324.png"  transform="matrix(7.836699e-002 0 0 7.836699e-002 415.7326 222.1073)">
					</image>
				</g>
			</g>
		</g>
		<g transform="matrix(1.04997,0,0,1.04997,673.173,686.808)">
			<g transform="matrix(0.228577,-0,-0,0.228577,-641.132,-654.119)">
				<g>
					
						<image overflow="visible" enable-background="new    " width="173" height="169" id="_Image9" xlink:href="BACAC325.png"  transform="matrix(7.836708e-002 0 0 7.836708e-002 399.8181 222.7915)">
					</image>
				</g>
			</g>
		</g>
		<g transform="matrix(1.04997,0,0,1.04997,687.892,676.141)">
			<g transform="matrix(0.228577,-0,-0,0.228577,-655.151,-643.959)">
				<g>
					
						<image overflow="visible" enable-background="new    " width="173" height="169" id="_Image10" xlink:href="FF4E33FF.png"  transform="matrix(7.836708e-002 0 0 7.836708e-002 404.6261 219.3052)">
					</image>
				</g>
			</g>
		</g>
		<g transform="matrix(1.4617,0,0,1.4617,624.555,419.549)">
			<g transform="matrix(0.164193,-0,-0,0.164193,-427.281,-287.029)">
				<g>
					
						<image overflow="visible" enable-background="new    " width="213" height="207" id="_Image11" xlink:href="FF4E33FD.png"  transform="matrix(7.836708e-002 0 0 7.836708e-002 410.8494 136.076)">
					</image>
				</g>
			</g>
		</g>
		<g transform="matrix(1.4617,0,0,1.4617,541.864,673.787)">
			<g transform="matrix(0.164193,-0,-0,0.164193,-370.709,-460.962)">
				<g>
					
						<image overflow="visible" enable-background="new    " width="213" height="207" id="_Image12" xlink:href="FF4E33FB.png"  transform="matrix(7.836708e-002 0 0 7.836708e-002 383.8477 219.0923)">
					</image>
				</g>
			</g>
		</g>
		<g transform="matrix(1.4617,0,0,1.4617,672.716,680.9)">
			<g transform="matrix(0.164193,-0,-0,0.164193,-460.23,-465.829)">
				<g>
					
						<image overflow="visible" enable-background="new    " width="213" height="207" id="_Image13" xlink:href="FF4E33F5.png"  transform="matrix(7.836708e-002 0 0 7.836708e-002 426.5775 221.4192)">
					</image>
				</g>
			</g>
		</g>
		<g transform="matrix(1.4617,0,0,1.4617,406.2,669.771)">
			<g transform="matrix(0.164193,-0,-0,0.164193,-277.896,-458.215)">
				<g>
					
						<image overflow="visible" enable-background="new    " width="213" height="207" id="_Image14" xlink:href="FF4E33F7.png"  transform="matrix(7.836708e-002 0 0 7.836708e-002 339.5461 217.7838)">
					</image>
				</g>
			</g>
		</g>
		<g transform="matrix(1.4617,0,0,1.4617,368.122,635.545)">
			<g transform="matrix(0.164193,-0,-0,0.164193,-251.846,-434.8)">
				<g>
					
						<image overflow="visible" enable-background="new    " width="213" height="207" id="_Image15" xlink:href="FF4E33EA.png"  transform="matrix(7.836708e-002 0 0 7.836708e-002 327.1151 206.6091)">
					</image>
				</g>
			</g>
		</g>
		<g transform="matrix(1.4617,0,0,1.4617,388.852,672.396)">
			<g transform="matrix(0.164193,-0,-0,0.164193,-266.028,-460.011)">
				<g>
					
						<image overflow="visible" enable-background="new    " width="213" height="207" id="_Image16" xlink:href="FF4E33EB.png"  transform="matrix(7.836708e-002 0 0 7.836708e-002 333.884 218.6412)">
					</image>
				</g>
			</g>
		</g>
		<g transform="matrix(1.4617,0,0,1.4617,511.512,663.22)">
			<g transform="matrix(0.164193,-0,-0,0.164193,-349.945,-453.734)">
				<g>
					
						<image overflow="visible" enable-background="new    " width="213" height="207" id="_Image17" xlink:href="FF4E33ED.png"  transform="matrix(7.836708e-002 0 0 7.836708e-002 373.9415 215.6489)">
					</image>
				</g>
			</g>
		</g>
		<g transform="matrix(1.4617,0,0,1.4617,374.876,656.213)">
			<g transform="matrix(0.164193,-0,-0,0.164193,-256.466,-448.939)">
				<g>
					
						<image overflow="visible" enable-background="new    " width="213" height="207" id="_Image18" xlink:href="FF4E33EF.png"  transform="matrix(7.836708e-002 0 0 7.836708e-002 329.3168 213.3532)">
					</image>
				</g>
			</g>
		</g>
		<g transform="matrix(1.4617,0,0,1.4617,403.661,666.932)">
			<g transform="matrix(0.164193,-0,-0,0.164193,-276.159,-456.273)">
				<g>
					
						<image overflow="visible" enable-background="new    " width="213" height="207" id="_Image19" xlink:href="FF4E33E8.png"  transform="matrix(7.836708e-002 0 0 7.836708e-002 338.7171 216.8583)">
					</image>
				</g>
			</g>
		</g>
		<g transform="matrix(0.780059,0,0,0.780059,772.299,679.33)">
			<g transform="matrix(0.307669,-0,-0,0.307669,-990.052,-870.869)">
				<g>
					
						<image overflow="visible" enable-background="new    " width="148" height="144" id="_Image20" xlink:href="FF4E340E.png"  transform="matrix(7.836740e-002 0 0 7.836740e-002 414.573 220.0029)">
					</image>
				</g>
			</g>
		</g>
		<g transform="matrix(0.780059,0,0,0.780059,793.22,678.522)">
			<g transform="matrix(0.307669,-0,-0,0.307669,-1016.87,-869.835)">
				<g>
					
						<image overflow="visible" enable-background="new    " width="148" height="144" id="_Image21" xlink:href="FF4E340D.png"  transform="matrix(7.836740e-002 0 0 7.836740e-002 421.3991 219.7452)">
					</image>
				</g>
			</g>
		</g>
		<g transform="matrix(0.780059,0,0,0.780059,810.094,674.692)">
			<g transform="matrix(0.307669,-0,-0,0.307669,-1038.5,-864.924)">
				<g>
					
						<image overflow="visible" enable-background="new    " width="148" height="144" id="_Image22" xlink:href="FF4E340A.png"  transform="matrix(7.836740e-002 0 0 7.836740e-002 426.904 218.4909)">
					</image>
				</g>
			</g>
		</g>
		<g transform="matrix(0.780059,0,0,0.780059,812.862,666.944)">
			<g transform="matrix(0.307669,-0,-0,0.307669,-1042.05,-854.992)">
				<g>
					
						<image overflow="visible" enable-background="new    " width="148" height="144" id="_Image23" xlink:href="FF4E3405.png"  transform="matrix(7.836740e-002 0 0 7.836740e-002 427.8131 215.9631)">
					</image>
				</g>
			</g>
		</g>
		<g transform="matrix(0.780059,0,0,0.780059,956.465,673.438)">
			<g transform="matrix(0.307669,-0,-0,0.307669,-1226.14,-863.316)">
				<g>
					
						<image overflow="visible" enable-background="new    " width="148" height="144" id="_Image24" xlink:href="FF4E3406.png"  transform="matrix(7.836740e-002 0 0 7.836740e-002 474.6958 218.0798)">
					</image>
				</g>
			</g>
		</g>
		<g transform="matrix(0.780059,0,0,0.780059,860.949,521.399)">
			<g transform="matrix(0.307669,-0,-0,0.307669,-1103.7,-668.409)">
				<g>
					
						<image overflow="visible" enable-background="new    " width="148" height="144" id="_Image25" xlink:href="FF4E3404.png"  transform="matrix(7.836740e-002 0 0 7.836740e-002 443.5286 168.435)">
					</image>
				</g>
			</g>
		</g>
		<g transform="matrix(0.780059,0,0,0.780059,844.801,519.336)">
			<g transform="matrix(0.307669,-0,-0,0.307669,-1083,-665.765)">
				<g>
					
						<image overflow="visible" enable-background="new    " width="148" height="144" id="_Image26" xlink:href="FF4E343A.png"  transform="matrix(7.836740e-002 0 0 7.836740e-002 438.2582 167.7631)">
					</image>
				</g>
			</g>
		</g>
		<g transform="matrix(0.780059,0,0,0.780059,716.128,527.274)">
			<g transform="matrix(0.307669,-0,-0,0.307669,-918.043,-675.941)">
				<g>
					
						<image overflow="visible" enable-background="new    " width="148" height="144" id="_Image27" xlink:href="FF4E343D.png"  transform="matrix(7.836740e-002 0 0 7.836740e-002 396.231 170.355)">
					</image>
				</g>
			</g>
		</g>
		<g transform="matrix(0.780059,0,0,0.780059,938.809,675.069)">
			<g transform="matrix(0.307669,-0,-0,0.307669,-1203.51,-865.408)">
				<g>
					
						<image overflow="visible" enable-background="new    " width="148" height="144" id="_Image28" xlink:href="FF4E343E.png"  transform="matrix(7.836740e-002 0 0 7.836740e-002 468.9429 218.6163)">
					</image>
				</g>
			</g>
		</g>
		<g transform="matrix(0.780059,0,0,0.780059,897.865,689.637)">
			<g transform="matrix(0.307669,-0,-0,0.307669,-1151.02,-884.083)">
				<g>
					
						<image overflow="visible" enable-background="new    " width="148" height="144" id="_Image29" xlink:href="FF4E343C.png"  transform="matrix(7.836740e-002 0 0 7.836740e-002 455.5685 223.3714)">
					</image>
				</g>
			</g>
		</g>
		<g transform="matrix(0.780059,0,0,0.780059,857.34,690.427)">
			<g transform="matrix(0.307669,-0,-0,0.307669,-1099.07,-885.096)">
				<g>
					
						<image overflow="visible" enable-background="new    " width="148" height="144" id="_Image30" xlink:href="FF4E3421.png"  transform="matrix(7.836740e-002 0 0 7.836740e-002 442.3394 223.6301)">
					</image>
				</g>
			</g>
		</g>
		<g transform="matrix(0.780059,0,0,0.780059,862.286,556.285)">
			<g transform="matrix(0.307669,-0,-0,0.307669,-1105.41,-713.132)">
				<g>
					
						<image overflow="visible" enable-background="new    " width="148" height="144" id="_Image31" xlink:href="FF4E345F.png"  transform="matrix(7.836740e-002 0 0 7.836740e-002 443.9533 179.8288)">
					</image>
				</g>
			</g>
		</g>
	</g>
</g>
</svg>
