<?xml version="1.0" encoding="utf-8"?>
<!-- Generator: Adobe Illustrator 18.1.1, SVG Export Plug-In . SVG Version: 6.00 Build 0)  -->
<svg version="1.1" id="Layer_1" xmlns="http://www.w3.org/2000/svg" xmlns:xlink="http://www.w3.org/1999/xlink" x="0px" y="0px"
	 viewBox="344.8 302.7 41.8 15" enable-background="new 344.8 302.7 41.8 15" xml:space="preserve">
<g transform="matrix(4.16667,0,0,4.16667,-0,-0)">
	<g id="heuvel01">
		<g transform="matrix(1,0,0,1,403,490)">
			
				<linearGradient id="SVGID_1_" gradientUnits="userSpaceOnUse" x1="-403" y1="-374.8051" x2="-402" y2="-374.8051" gradientTransform="matrix(-1.4896 6.2567 6.2567 1.4896 1424.9772 2664.4036)">
				<stop  offset="0" style="stop-color:#CFDBF3"/>
				<stop  offset="1" style="stop-color:#EFF3FB"/>
			</linearGradient>
			<path fill="url(#SVGID_1_)" d="M-318.9-415.9l-1.3-0.5v2.4l0.5,0.1L-318.9-415.9z"/>
		</g>
		<g transform="matrix(1,0,0,1,403,490)">
			
				<linearGradient id="SVGID_2_" gradientUnits="userSpaceOnUse" x1="-403" y1="-374.7991" x2="-402" y2="-374.7991" gradientTransform="matrix(2.2857 -5.8776 -5.8776 -2.2857 -1600.9117 -3639.0898)">
				<stop  offset="0" style="stop-color:#D4E4F2"/>
				<stop  offset="0.44" style="stop-color:#9BBEE2"/>
				<stop  offset="1" style="stop-color:#8CB4DE"/>
				<stop  offset="1" style="stop-color:#8CB4DE"/>
			</linearGradient>
			<path fill="url(#SVGID_2_)" d="M-318-414.8l-0.9-1.1l-0.9,1.9l1.3,0.2L-318-414.8z"/>
		</g>
		<g transform="matrix(1,0,0,1,403,490)">
			
				<linearGradient id="SVGID_3_" gradientUnits="userSpaceOnUse" x1="-403" y1="-374.7164" x2="-402" y2="-374.7164" gradientTransform="matrix(8.4601 -3.2653 -3.2653 -8.4601 1868.0894 -4900.0518)">
				<stop  offset="0" style="stop-color:#6885AC"/>
				<stop  offset="0.44" style="stop-color:#82A3CE"/>
				<stop  offset="1" style="stop-color:#89ABD7"/>
				<stop  offset="1" style="stop-color:#89ABD7"/>
			</linearGradient>
			<path fill="url(#SVGID_3_)" d="M-315.2-415.1l-2.8,0.3l-0.4,1h2.4L-315.2-415.1z"/>
		</g>
		<g transform="matrix(1,0,0,1,403,490)">
			<path fill="#96AED5" d="M-320.2-416.4l3.3,0.5h-2L-320.2-416.4z"/>
		</g>
		<g transform="matrix(1,0,0,1,403,490)">
			<path fill="#96AED5" d="M-317-415.9h-2l0.9,1.1l2.8-0.3L-317-415.9z"/>
		</g>
		<g transform="matrix(1,0,0,1,403,490)">
			<path fill="#D4E4F2" d="M-316.8-417.4h3l-3.1,1.5L-316.8-417.4z"/>
		</g>
		<g transform="matrix(1,0,0,1,403,490)">
			<path fill="#A6BADB" d="M-313.8-417.4l-1.4,2.3l-1.7-0.8L-313.8-417.4z"/>
		</g>
		<g transform="matrix(1,0,0,1,403,490)">
			
				<linearGradient id="SVGID_4_" gradientUnits="userSpaceOnUse" x1="-403" y1="-374.8729" x2="-402" y2="-374.8729" gradientTransform="matrix(-9.172 8.426 8.426 9.172 -851.3853 6418.415)">
				<stop  offset="0" style="stop-color:#89ABD7"/>
				<stop  offset="1" style="stop-color:#3A6CAC"/>
			</linearGradient>
			<path fill="url(#SVGID_4_)" d="M-313-414.5l0.1-0.5l-0.9-2.4l-2.3,3.6l1.9-0.1L-313-414.5z"/>
		</g>
		<g transform="matrix(1,0,0,1,403,490)">
			
				<linearGradient id="SVGID_5_" gradientUnits="userSpaceOnUse" x1="-403" y1="-374.8082" x2="-402" y2="-374.8082" gradientTransform="matrix(9.4676 -0.5153 -0.5153 -9.4676 3309.168 -4170.3384)">
				<stop  offset="0" style="stop-color:#6885AC"/>
				<stop  offset="1" style="stop-color:#FFFFFF"/>
			</linearGradient>
			<path fill="url(#SVGID_5_)" d="M-310.2-414.5h-2.7l-1.3,0.6l2-0.2L-310.2-414.5z"/>
		</g>
		<g transform="matrix(1,0,0,1,533,659)">
			<path fill="#EFF3FB" d="M-446.8-586.4l-0.2,1.5l-3.3-0.5L-446.8-586.4z"/>
		</g>
	</g>
</g>
</svg>
