<?xml version="1.0" encoding="utf-8"?>
<!-- Generator: Adobe Illustrator 18.1.1, SVG Export Plug-In . SVG Version: 6.00 Build 0)  -->
<svg version="1.1" id="Layer_1" xmlns="http://www.w3.org/2000/svg" xmlns:xlink="http://www.w3.org/1999/xlink" x="0px" y="0px"
	 viewBox="402.6 288.7 72.3 33.4" enable-background="new 402.6 288.7 72.3 33.4" xml:space="preserve">
<g transform="matrix(4.16667,0,0,4.16667,-0,-0)">
	<g id="heuvel02">
		<g transform="matrix(5.67949,0,0,5.67949,-3728.74,-1637.69)">
			
				<linearGradient id="SVGID_1_" gradientUnits="userSpaceOnUse" x1="656.5273" y1="308.6662" x2="657.5273" y2="308.6662" gradientTransform="matrix(-1.3061 7.1837 7.1837 1.3061 -685.8969 -4817.6367)">
				<stop  offset="0" style="stop-color:#88B2DD"/>
				<stop  offset="1" style="stop-color:#FFFFFF"/>
			</linearGradient>
			<path fill="url(#SVGID_1_)" d="M673.5,301.5l0.9,0.5h-0.9V301.5z"/>
		</g>
		<g transform="matrix(5.67949,0,0,5.67949,-3728.74,-1637.69)">
			<path fill="#EFF3FB" d="M673.9,300.5l-0.4,0.9l0.2,0.2l1-0.6L673.9,300.5z"/>
		</g>
		<g transform="matrix(5.67949,0,0,5.67949,-3728.74,-1637.69)">
			<path fill="#D4E4F2" d="M675.1,300.5l-0.3,0.5l-0.9-0.5H675.1z"/>
		</g>
		<g transform="matrix(5.67949,0,0,5.67949,-3728.74,-1637.69)">
			
				<linearGradient id="SVGID_2_" gradientUnits="userSpaceOnUse" x1="656.5273" y1="308.6453" x2="657.5273" y2="308.6453" gradientTransform="matrix(-15.347 11.7551 11.7551 15.347 7122.4297 -12152.9824)">
				<stop  offset="0" style="stop-color:#DFE3EB"/>
				<stop  offset="1" style="stop-color:#88B2DD"/>
			</linearGradient>
			<path fill="url(#SVGID_2_)" d="M674.8,302V301l-1,0.6l0.6,0.3H674.8z"/>
		</g>
		<g transform="matrix(5.67949,0,0,5.67949,-3728.74,-1637.69)">
			
				<linearGradient id="SVGID_3_" gradientUnits="userSpaceOnUse" x1="656.5273" y1="308.6227" x2="657.5273" y2="308.6227" gradientTransform="matrix(1.9726 -19.1003 -19.1003 -1.9726 5274.8872 13450.6504)">
				<stop  offset="0" style="stop-color:#628CC2"/>
				<stop  offset="1" style="stop-color:#D4E4F2"/>
			</linearGradient>
			<path fill="url(#SVGID_3_)" d="M674.8,301l0.9,0.5l-0.5,0.4h-0.3V301z"/>
		</g>
		<g transform="matrix(5.67949,0,0,5.67949,-3728.74,-1637.69)">
			<path fill="#7AA6D5" d="M675.1,300.5l0.5,1l-0.9-0.5L675.1,300.5z"/>
		</g>
		<g transform="matrix(5.67949,0,0,5.67949,-3728.74,-1637.69)">
			
				<linearGradient id="SVGID_4_" gradientUnits="userSpaceOnUse" x1="656.5273" y1="308.6384" x2="657.5273" y2="308.6384" gradientTransform="matrix(33.2183 -1.1596 -1.1596 -33.2183 -20775.6523 11315.5313)">
				<stop  offset="0" style="stop-color:#6885AC"/>
				<stop  offset="1" style="stop-color:#FFFFFF"/>
			</linearGradient>
			<path fill="url(#SVGID_4_)" d="M675.7,301.6l0.9,0.2l-1.5,0.2L675.7,301.6z"/>
		</g>
	</g>
</g>
</svg>
