<?xml version="1.0" encoding="utf-8"?>
<!-- Generator: Adobe Illustrator 18.1.1, SVG Export Plug-In . SVG Version: 6.00 Build 0)  -->
<svg version="1.1" id="Layer_1" xmlns="http://www.w3.org/2000/svg" xmlns:xlink="http://www.w3.org/1999/xlink" x="0px" y="0px"
	 viewBox="156.9 226.3 158.2 172.5" enable-background="new 156.9 226.3 158.2 172.5" xml:space="preserve">
<g transform="matrix(4.16667,0,0,4.16667,-0,-0)">
	<g id="kerstboom" transform="matrix(0.24,-0,-0,0.24,0,0)">
		<g>
			
				<image overflow="visible" enable-background="new    " width="2019" height="2201" id="_Image1" xlink:href="642D6995.png"  transform="matrix(7.836740e-002 0 0 7.836740e-002 156.9472 226.2855)">
			</image>
		</g>
	</g>
	<g id="sneeuw_Kerstboom">
		<g transform="matrix(1.4617,0,0,1.4617,40.6609,980.153)">
			<g transform="matrix(0.164193,-0,-0,0.164193,-27.8176,-670.559)">
				<g>
					
						<image overflow="visible" enable-background="new    " width="213" height="207" id="_Image2" xlink:href="642D6997.png"  transform="matrix(7.836770e-002 0 0 7.836770e-002 220.1867 319.1356)">
					</image>
				</g>
			</g>
		</g>
		<g transform="matrix(1.4617,0,0,1.4617,127.321,948.626)">
			<g transform="matrix(0.164193,-0,-0,0.164193,-87.105,-648.99)">
				<g>
					
						<image overflow="visible" enable-background="new    " width="213" height="207" id="_Image3" xlink:href="642D6992.png"  transform="matrix(7.836770e-002 0 0 7.836770e-002 248.4848 308.8396)">
					</image>
				</g>
			</g>
		</g>
		<g transform="matrix(1.02412,0,0,0.931866,114.622,772.273)">
			<g transform="matrix(0.234348,-0,-0,0.257548,-111.923,-828.738)">
				<g>
					
						<image overflow="visible" enable-background="new    " width="171" height="158" id="_Image4" xlink:href="642D6993.png"  transform="matrix(7.836755e-002 0 0 7.836748e-002 215.7622 250.5515)">
					</image>
				</g>
			</g>
		</g>
		<g transform="matrix(1.02412,0,0,0.931866,-5.82337,822.273)">
			<g transform="matrix(0.234348,-0,-0,0.257548,5.68624,-882.393)">
				<g>
					
						<image overflow="visible" enable-background="new    " width="171" height="158" id="_Image5" xlink:href="642D699D.png"  transform="matrix(7.836755e-002 0 0 7.836748e-002 176.4309 266.8759)">
					</image>
				</g>
			</g>
		</g>
		<g transform="matrix(1.4617,0,0,1.4617,178.661,1032.15)">
			<g transform="matrix(0.164193,-0,-0,0.164193,-122.228,-706.134)">
				<g>
					
						<image overflow="visible" enable-background="new    " width="213" height="207" id="_Image6" xlink:href="642D699F.png"  transform="matrix(7.836770e-002 0 0 7.836770e-002 265.2465 336.1266)">
					</image>
				</g>
			</g>
		</g>
		<g transform="matrix(1.4617,0,0,1.4617,-31.3391,1063.15)">
			<g transform="matrix(0.164193,-0,-0,0.164193,21.4403,-727.342)">
				<g>
					
						<image overflow="visible" enable-background="new    " width="213" height="207" id="_Image7" xlink:href="642D6990.png"  transform="matrix(7.836770e-002 0 0 7.836770e-002 196.6753 346.2484)">
					</image>
				</g>
			</g>
		</g>
	</g>
</g>
</svg>
