<?xml version="1.0" encoding="utf-8"?>
<!-- Generator: Adobe Illustrator 18.1.1, SVG Export Plug-In . SVG Version: 6.00 Build 0)  -->
<svg version="1.1" id="Laag_1" xmlns="http://www.w3.org/2000/svg" xmlns:xlink="http://www.w3.org/1999/xlink" x="0px" y="0px"
	 viewBox="0 0 774.3 348.3" enable-background="new 0 0 774.3 348.3" xml:space="preserve">
<g>
	
		<ellipse transform="matrix(0.2209 0.9753 -0.9753 0.2209 169.4392 -170.4515)" fill="#FFFFFF" cx="191.4" cy="20.8" rx="11.2" ry="15.2"/>
	
		<ellipse transform="matrix(0.7333 0.6799 -0.6799 0.7333 73.5778 -48.4077)" fill="#FFFFFF" cx="98.5" cy="69.6" rx="11.2" ry="15.2"/>
	
		<ellipse transform="matrix(0.8729 -0.4878 0.4878 0.8729 -73.0798 69.5191)" fill="#FFFFFF" cx="96.9" cy="175" rx="11.2" ry="15.2"/>
	
		<ellipse transform="matrix(0.2331 -0.9725 0.9725 0.2331 -76.3932 357.9102)" fill="#FFFFFF" cx="188.7" cy="227.4" rx="11.2" ry="15.2"/>
	
		<ellipse transform="matrix(0.2963 -0.9551 0.9551 0.2963 25.3066 392.8652)" fill="#FFFFFF" cx="279.3" cy="179.3" rx="15.2" ry="11.2"/>
	
		<ellipse transform="matrix(-0.894 0.4481 -0.4481 -0.894 565.6324 12.4466)" fill="#FFFFFF" cx="281.3" cy="73.1" rx="11.2" ry="15.2"/>
	<path fill="#FFFFFF" d="M313.9,145.2l-3.2-8.6c-0.3-0.7-0.6-1.3-1.4-1.7c-0.8-0.5-1.7-0.6-2.6-0.3l-13.2,5.8c0,0-26.5,11.3-33.3,14
		l0,0c-2.3,1-5,0.9-7.3-0.5l-14.4-8.7c-1.3-0.8-1.7-2.4-0.9-3.7c0.3-0.5,0.7-0.8,1.1-1l23.8-12.3l0,0c1.3-0.7,1.8-2.3,1-3.6
		c-0.3-0.5-0.6-0.8-1.1-1.1l-23.3-13.1c-0.4-0.2-0.8-0.6-1.1-1.1c-0.7-1.3-0.2-2.9,1-3.6l14.7-8.1c2.4-1.3,5.1-1.3,7.3-0.2l0,0
		c6.7,3,32.7,15.3,32.7,15.3l13,6.3c0.8,0.3,1.8,0.2,2.6-0.2c0.7-0.4,1.1-1,1.4-1.7l3.5-8.5c0.3-0.9,0.1-1.6-0.3-2.3
		c-0.3-0.6-0.8-1.1-1.4-1.3l0,0l-16-6.2c0,0-18.1-7.3-23.7-12.1c-1.6-1.3-3.2-3.1-4.4-5.4c-1.3-2.3-2-4.6-2.2-6.6
		c-1.1-7.3,2.4-26.5,2.4-26.5l3.3-16.8l0,0c0.1-0.6,0-1.3-0.4-1.9c-0.4-0.7-0.9-1.3-1.8-1.5l-9-1.5c-0.7-0.1-1.4-0.1-2.2,0.3
		c-0.8,0.5-1.4,1.2-1.6,2.1l-1.6,14.4c0,0-3.4,28.6-4.5,35.8l0,0c-0.3,2.5-1.7,4.8-4.1,6.1L232,93.1c-0.4,0.2-0.8,0.3-1.2,0.2
		c-1.5,0-2.7-1.2-2.6-2.7l0.5-25.4c0-1.5-1.1-2.7-2.6-2.7c-0.5,0-1,0.1-1.5,0.4l-23.1,13.6c-0.4,0.3-0.9,0.4-1.5,0.4
		c-1.5,0-2.7-1.2-2.6-2.7l0.3-16.8c0.1-2.7,1.4-5,3.5-6.5l0,0c5.9-4.3,29.6-20.7,29.6-20.7l12-8.1c0.7-0.6,1.1-1.4,1.1-2.4
		c0-0.8-0.3-1.5-0.7-2.1l-5.6-7.3c-0.6-0.7-1.3-0.9-2.2-0.9c-0.7,0-1.3,0.2-1.9,0.6l0,0l-13.3,10.7c0,0-15.4,12.1-22.3,14.5
		c-1.9,0.7-4.3,1.2-6.9,1.1c-2.6-0.1-5-0.6-6.9-1.4c-6.9-2.7-21.8-15.3-21.8-15.3L149.4,8.5l0,0c-0.5-0.4-1.2-0.6-1.9-0.6
		c-0.8,0-1.6,0.1-2.2,0.8l-5.8,7.1c-0.5,0.6-0.8,1.2-0.8,2.1c0,0.9,0.4,1.8,1,2.4l11.6,8.6c0,0,23.1,17.3,28.8,21.8l0,0
		c2,1.5,3.3,3.9,3.2,6.6L183,74c0,1.5-1.2,2.7-2.7,2.6c-0.5,0-1-0.2-1.5-0.5l-22.5-14.5c-0.4-0.3-0.9-0.5-1.5-0.5
		c-1.5,0-2.7,1.1-2.7,2.6l-0.5,25.4c0,1.5-1.2,2.7-2.7,2.6c-0.4,0-0.8-0.1-1.2-0.3l-14.6-8.8c-2.3-1.4-3.7-3.7-3.9-6.2l0,0
		c-0.8-7.2-3.1-36-3.1-36l-1.1-14.4c-0.2-0.9-0.7-1.6-1.5-2.1c-0.7-0.4-1.4-0.5-2.2-0.4l-9.1,1.2c-0.9,0.1-1.4,0.7-1.9,1.4
		c-0.4,0.6-0.5,1.3-0.5,1.9l0,0l2.6,16.9c0,0,2.8,19.3,1.4,26.6c-0.3,2-1.1,4.3-2.5,6.5c-1.4,2.2-3,4-4.6,5.2
		c-5.8,4.6-24.2,11.2-24.2,11.2l-16.2,5.6l0,0c-0.6,0.3-1.1,0.7-1.5,1.3c-0.4,0.7-0.7,1.5-0.4,2.3l3.2,8.6c0.3,0.7,0.6,1.3,1.4,1.7
		c0.8,0.5,1.7,0.6,2.6,0.3l13.2-5.8c0,0,26.5-11.3,33.3-14l0,0c2.3-1,5-0.9,7.3,0.5l14.4,8.7c1.3,0.8,1.7,2.4,0.9,3.7
		c-0.3,0.5-0.7,0.8-1.1,1l-23.8,12.3c-0.5,0.2-0.9,0.6-1.1,1c-0.8,1.3-0.4,2.9,0.9,3.7l0,0l23.3,13.1c0.4,0.2,0.8,0.6,1.1,1.1
		c0.7,1.3,0.2,2.9-1,3.6l-14.7,8.1c-2.4,1.3-5.1,1.3-7.3,0.2l0,0c-6.7-3-32.7-15.3-32.7-15.3l-13-6.3c-0.8-0.3-1.8-0.2-2.6,0.2
		c-0.7,0.4-1.1,1-1.4,1.7l-3.5,8.5c-0.3,0.9-0.1,1.6,0.3,2.3c0.3,0.6,0.8,1.1,1.4,1.3l0,0l16,6.2c0,0,18.1,7.3,23.7,12.1
		c1.6,1.3,3.2,3.1,4.4,5.4c1.3,2.3,2,4.6,2.2,6.6c1.1,7.3-2.4,26.5-2.4,26.5l-3.3,16.8l0,0c-0.1,0.6,0,1.3,0.4,1.9
		c0.4,0.7,0.9,1.3,1.8,1.5l9,1.5c0.7,0.1,1.4,0.1,2.2-0.3c0.8-0.5,1.4-1.2,1.6-2.1l1.6-14.4c0,0,3.4-28.6,4.5-35.8l0,0
		c0.3-2.5,1.7-4.8,4.1-6.1l15.1-8.4c0.4-0.2,0.8-0.3,1.2-0.2c1.5,0,2.7,1.2,2.6,2.7l-0.5,25.4c0,1.5,1.1,2.7,2.6,2.7
		c0.5,0,1-0.1,1.5-0.4l23.1-13.6c0.4-0.3,0.9-0.4,1.5-0.4c1.5,0,2.7,1.2,2.6,2.7l-0.3,16.8c-0.1,2.7-1.4,5-3.5,6.5l0,0
		c-5.9,4.3-29.6,20.7-29.6,20.7l-12,8.1c-0.7,0.6-1.1,1.4-1.1,2.4c0,0.8,0.3,1.5,0.7,2.1l5.6,7.3c0.6,0.7,1.3,0.9,2.2,0.9
		c0.7,0,1.3-0.2,1.9-0.6l0,0l13.3-10.7c0,0,15.4-12.1,22.3-14.5c1.9-0.7,4.3-1.2,6.9-1.1c2.6,0.1,5,0.6,6.8,1.4
		c6.9,2.7,21.8,15.3,21.8,15.3l12.9,11.2l0,0c0.5,0.4,1.2,0.6,1.9,0.6c0.8,0,1.6-0.1,2.2-0.8l5.8-7.1c0.5-0.6,0.8-1.2,0.8-2.1
		c0-0.9-0.4-1.8-1-2.4l-11.6-8.6c0,0-23.1-17.3-28.8-21.8l0,0c-2-1.5-3.3-3.9-3.2-6.6l0.3-16.8c0-1.5,1.2-2.7,2.7-2.6
		c0.5,0,1,0.2,1.5,0.5l22.5,14.5c0.4,0.3,0.9,0.5,1.5,0.5c1.5,0,2.7-1.1,2.7-2.6l0.5-25.4c0-1.5,1.2-2.7,2.7-2.6
		c0.4,0,0.8,0.1,1.2,0.3l14.8,8.9c2.3,1.4,3.7,3.7,3.9,6.2l0,0c0.8,7.2,3.1,36,3.1,36l1.1,14.4c0.2,0.9,0.7,1.6,1.5,2.1
		c0.7,0.4,1.4,0.5,2.2,0.4l9.1-1.2c0.9-0.1,1.4-0.7,1.9-1.4c0.4-0.6,0.5-1.3,0.5-1.9l0,0l-2.6-16.9c0,0-2.8-19.3-1.4-26.6
		c0.3-2,1.1-4.3,2.5-6.5c1.4-2.2,3-4,4.6-5.2c5.8-4.6,24.2-11.2,24.2-11.2l16.2-5.6l0,0c0.6-0.3,1.1-0.7,1.5-1.3
		C313.9,146.8,314.2,146.1,313.9,145.2z M156.2,131.9l-8.4-5.5c-1.2-0.8-1.6-2.5-0.8-3.7c0.3-0.5,0.7-0.8,1.2-1l11.2-5.9
		c0.9-0.5,2-0.5,2.9,0l8.9,5.9c1.2,0.8,1.6,2.5,0.8,3.7c-0.2,0.3-0.5,0.6-0.8,0.8l-12.4,5.9C158,132.4,157,132.4,156.2,131.9z
		 M179.7,155.1l-9.4,5.1c-1.3,0.7-2.9,0.2-3.6-1c-0.2-0.3-0.3-0.7-0.3-1.1l0.6-13.7c0.1-0.9,0.5-1.7,1.4-2.2l8.8-4.9
		c1.3-0.7,2.9-0.2,3.6,1c0.3,0.5,0.4,1,0.3,1.5l0,12.7C181.1,153.6,180.6,154.6,179.7,155.1z M182.3,107.4c0,1.5-1.2,2.7-2.7,2.6
		c-0.6,0-1.1-0.2-1.5-0.5l-11-6.4c-0.9-0.4-1.5-1.4-1.5-2.4l0.3-10.7c0-1.5,1.2-2.7,2.7-2.6c0.4,0,0.8,0.1,1.1,0.3l11.6,7.4
		c0.7,0.5,1.2,1.3,1.2,2.3L182.3,107.4z M197,97.7c0-0.9,0.5-1.8,1.3-2.2l11.8-7c0.3-0.1,0.7-0.2,1.1-0.2c1.5,0,2.7,1.2,2.6,2.7
		l-0.1,10.7c0,1.1-0.7,2-1.6,2.4l-11.2,6c-0.4,0.3-0.9,0.4-1.5,0.4c-1.5,0-2.7-1.2-2.6-2.7L197,97.7z M210.5,160
		c-0.8,1.3-2.4,1.7-3.7,0.9l-9.2-5.5c-0.9-0.6-1.4-1.6-1.3-2.6l0.4-12.7c0-0.5,0.1-1,0.4-1.5c0.8-1.3,2.4-1.7,3.7-0.9l8.6,5.2
		c0.8,0.5,1.3,1.3,1.3,2.2l0.1,13.7C210.8,159.3,210.7,159.7,210.5,160z M230.6,127.9l-8.6,5.2c-0.8,0.5-1.8,0.5-2.6,0.1l-12.2-6.3
		c-0.3-0.2-0.6-0.5-0.8-0.8c-0.8-1.3-0.3-2.9,0.9-3.7l9.1-5.6c0.9-0.5,2-0.5,2.9,0.1l11,6.3c0.5,0.2,0.9,0.6,1.2,1
		C232.2,125.5,231.8,127.2,230.6,127.9z"/>
</g>
<g>
	<path fill="#FFFFFF" d="M2.3,336.1c-1.9-1.7-2.8-4.7-2.1-8c1.1-5.5,6.1-9.7,11.2-9.7c2.6,0,4.2,1,5.3,1.9
		c5.7,5.4,12.5,8.7,21.3,8.7c8.1,0,13.7-3.4,14.8-9l0.1-0.3c1.1-5.3-1.5-8.1-15.7-12.3c-17.2-5-27.8-10.4-23.9-29.4l0.1-0.3
		c3.5-17.4,19-28.9,37.4-28.8c10.9,0,19.9,3.1,26.9,8.6c1.9,1.4,3.5,4.3,2.7,8.4c-1.1,5.5-6.1,9.7-11.2,9.7c-1.9,0-3.4-0.6-4.7-1.5
		c-5.7-4.1-11.4-6.5-17.6-6.5c-7.6,0-12.3,3.7-13.3,8.3l-0.1,0.3c-1.3,6.3,2.2,8.4,16.9,12.7c17.3,5.1,26.2,12.1,22.8,28.9L73,318
		c-3.9,19.1-19.7,29.7-39.1,29.7C22,347.7,10.8,343.8,2.3,336.1z"/>
	<path fill="#FFFFFF" d="M92.8,259.8c1.2-5.9,6.5-10.5,12.1-10.5c5.5,0,9,4.7,7.8,10.6l-6.5,32.2l44.4-38.6c3-2.6,5.7-4.1,9.2-4.1
		c5.5,0,8.2,4.6,7.2,9.8c-0.7,3.3-2.6,5.8-5.2,7.9l-30.5,25.2l20.2,37.1c1.1,2.1,1.8,4.3,1.2,7.4c-1.2,5.9-6.3,10.3-12.1,10.3
		c-3.9,0-5.8-2.1-7.3-5.1l-18.5-36L101,317.2l-3.9,19.2c-1.2,5.9-6.5,10.5-12.1,10.5c-5.5,0-9-4.7-7.8-10.6L92.8,259.8z"/>
	<path fill="#FFFFFF" d="M175.7,260c1.2-5.9,6.5-10.5,12.1-10.5c5.5,0,9,4.7,7.8,10.6l-15.5,76.5c-1.2,5.9-6.5,10.5-12.1,10.5
		s-9-4.7-7.8-10.6L175.7,260z"/>
</g>
<g>
	<path fill="#4794DF" d="M475,250.5c-5.4,0-10.7,4.3-11.9,9.7l-9.1,52.6l-28.4-56.4c-2-3.5-4.3-5.8-9.1-5.8l-2.1,0
		c-5.5,0-10.9,4.3-12.1,9.8L388,338.1c-1.2,5.4,2.3,9.7,7.7,9.7c5.4,0,10.7-4.3,11.9-9.7l9.5-54.4l29.4,58.2c2,3.5,4.3,5.8,9.1,5.8
		l0.6,0c5.5,0,10.9-4.3,12.1-9.8l14.5-77.6C483.8,254.9,480.4,250.6,475,250.5z"/>
	<path fill="#4794DF" d="M765.5,190.3l-13.2,0.7c-0.1,0-0.3-0.1-0.4-0.1l-6.4,0.3l2-13.2c0.7-4.5-2.2-8-6.4-7.8
		c-4.2,0.2-8.2,4-8.8,8.5l-2,13.2l-12.7,0.6c-4.1,0.2-7.9,3.9-8.6,8.3c-0.7,4.4,2.1,7.8,6.2,7.6l12.7-0.6l-2,13.2
		c-0.7,4.5,2.2,8,6.4,7.8c4.2-0.2,8.2-4,8.8-8.5l2-13.2l6.4-0.3c1.4-0.1,2.6-0.6,3.9-1.4C765.8,200.2,765.5,190.3,765.5,190.3z"/>
	<path fill="#4794DF" d="M382.4,250.3c-5.5,0-10.9,4.3-12.1,9.8l-8.2,48.6c-3.1,14.2-12,21.5-24.1,21.4c-12.1,0-17.8-7.6-14.6-22.2
		l8.1-48c1.2-5.5-2.2-9.9-7.8-9.9c-1.4,0-2.6-0.7-3.9-0.2l-71-0.2c-5.5,0-10.9,4.3-12.1,9.8l-5.2,34.7l-19.8-0.1
		c-5.2,0-10,2.8-11.1,7.9c-1.1,5.1,2.2,9.3,7.4,9.4l19.8,0.1l-5.6,26c-1.2,5.5,2.2,9.9,7.8,9.9c5.5,0,10.9-4.3,12.1-9.8l5.6-25.6
		l29.7,0.1l0.1-0.1c0,0,11.9-0.2,14-17.7c-1.5-0.1-3.3-0.1-5.2-0.1l-34.8-0.1l3.4-26.4l55.1,0.1l-6.5,40.6
		c-5.7,26.3,6.2,39.8,30.4,39.9c24.2,0.1,42.4-13.2,48.3-40.3l8-47.8C391.4,254.7,388,250.3,382.4,250.3z"/>
</g>
<g>
	<path fill="#21548E" d="M603.4,332.9c-2.1-2.3-3.5-6.2-2.6-10.4c1.6-7.5,9.2-13.9,16.5-13.9c4,0,6.4,1.7,8.3,3.6
		c6,6.4,13,9.9,23.1,9.9c10.7,0,19.5-6.2,21.6-16l0.1-0.4c2.3-10.8-5.9-16.8-21.7-16.9l-4.4,0c-6.6,0-10.9-5.7-9.5-12.5
		c0.8-4,3.2-7.4,8.6-11.9l30.4-25.8l-39.5-0.1c-6.6,0-11-5.7-9.5-12.5c1.4-6.8,8.1-12.4,14.8-12.4l62.7,0.2
		c8.3,0,13.3,4.9,11.6,12.9c-1.5,7.2-5.6,11.1-11.9,16.2l-30.4,24.7c16.8,3.1,32,12.5,26.8,37.1l-0.1,0.4
		c-5.2,24.9-26.7,43.2-55.4,43.1C624.5,348,611.9,342.1,603.4,332.9z"/>
	<path fill="#21548E" d="M608.1,227.5c1.6-7.7-3.2-14.2-10.7-14.2c-8.3,0-13,3.2-19.7,9.6l-69.9,66.4c-5.3,5.1-8.7,9.7-10,15.8
		c-1.6,7.7,3.4,13.4,11,13.4l53,0.1l-3.3,15.8c-1.6,7.7,3,13.8,10.5,13.8c7.5,0,14.9-6,16.5-13.7l3.3-15.6c1-0.3,2-0.6,3-1
		c1.5-0.5,2.9-1.2,4.2-2.2c10.1-7.1,11.8-20.1,11.8-20.1h-14.3C593,295.5,608.1,227.5,608.1,227.5z M566.7,295l-34.2-0.1l42.9-41
		L566.7,295z M588.7,318.7l-1.5,0c0.5,0,1-0.1,1.5-0.1L588.7,318.7z"/>
</g>
</svg>
